solid OpenSCAD_Model
  facet normal 0.99863 0.052336 0
    outer loop
      vertex 4.75 0 1
      vertex 4.72398 0.49651 0
      vertex 4.72398 0.49651 1
    endloop
  endfacet
  facet normal 0.99863 0.052336 0
    outer loop
      vertex 4.72398 0.49651 0
      vertex 4.75 0 1
      vertex 4.75 0 0
    endloop
  endfacet
  facet normal -0.99863 0.052336 0
    outer loop
      vertex -4.75 0 0
      vertex -4.72398 0.49651 1
      vertex -4.72398 0.49651 0
    endloop
  endfacet
  facet normal -0.99863 0.052336 0
    outer loop
      vertex -4.72398 0.49651 1
      vertex -4.75 0 0
      vertex -4.75 0 1
    endloop
  endfacet
  facet normal 0.052336 0.99863 -0
    outer loop
      vertex 0.49651 4.72398 0
      vertex 0 4.75 1
      vertex 0.49651 4.72398 1
    endloop
  endfacet
  facet normal 0.052336 0.99863 0
    outer loop
      vertex 0 4.75 1
      vertex 0.49651 4.72398 0
      vertex 0 4.75 0
    endloop
  endfacet
  facet normal 0.707107 0.707107 0
    outer loop
      vertex 3.52994 3.17837 1
      vertex 3.17837 3.52994 0
      vertex 3.17837 3.52994 1
    endloop
  endfacet
  facet normal 0.707107 0.707107 0
    outer loop
      vertex 3.17837 3.52994 0
      vertex 3.52994 3.17837 1
      vertex 3.52994 3.17837 0
    endloop
  endfacet
  facet normal -0.629321 0.777145 0
    outer loop
      vertex -2.79198 3.84283 0
      vertex -3.17837 3.52994 1
      vertex -2.79198 3.84283 1
    endloop
  endfacet
  facet normal -0.629321 0.777145 0
    outer loop
      vertex -3.17837 3.52994 1
      vertex -2.79198 3.84283 0
      vertex -3.17837 3.52994 0
    endloop
  endfacet
  facet normal -0.258818 0.965926 0
    outer loop
      vertex -0.98758 4.6462 0
      vertex -1.46783 4.51752 1
      vertex -0.98758 4.6462 1
    endloop
  endfacet
  facet normal -0.258818 0.965926 0
    outer loop
      vertex -1.46783 4.51752 1
      vertex -0.98758 4.6462 0
      vertex -1.46783 4.51752 0
    endloop
  endfacet
  facet normal -0.987688 -0.156436 0
    outer loop
      vertex -4.6462 -0.98758 0
      vertex -4.72398 -0.49651 1
      vertex -4.72398 -0.49651 0
    endloop
  endfacet
  facet normal -0.987688 -0.156436 0
    outer loop
      vertex -4.72398 -0.49651 1
      vertex -4.6462 -0.98758 0
      vertex -4.6462 -0.98758 1
    endloop
  endfacet
  facet normal 0 0 -1
    outer loop
      vertex 4.72398 -0.49651 0
      vertex 4.72398 0.49651 0
      vertex 4.75 0 0
    endloop
  endfacet
  facet normal 0 0 -1
    outer loop
      vertex 4.6462 -0.98758 0
      vertex 4.72398 0.49651 0
      vertex 4.72398 -0.49651 0
    endloop
  endfacet
  facet normal 0 0 -1
    outer loop
      vertex 4.6462 -0.98758 0
      vertex 4.6462 0.98758 0
      vertex 4.72398 0.49651 0
    endloop
  endfacet
  facet normal 0 0 -1
    outer loop
      vertex 4.51752 -1.46783 0
      vertex 4.6462 0.98758 0
      vertex 4.6462 -0.98758 0
    endloop
  endfacet
  facet normal 0 0 -1
    outer loop
      vertex 4.51752 -1.46783 0
      vertex 4.51752 1.46783 0
      vertex 4.6462 0.98758 0
    endloop
  endfacet
  facet normal 0 0 -1
    outer loop
      vertex 4.33934 -1.932 0
      vertex 4.51752 1.46783 0
      vertex 4.51752 -1.46783 0
    endloop
  endfacet
  facet normal 0 0 -1
    outer loop
      vertex 4.33934 -1.932 0
      vertex 4.33934 1.932 0
      vertex 4.51752 1.46783 0
    endloop
  endfacet
  facet normal 0 0 -1
    outer loop
      vertex 4.11362 -2.375 0
      vertex 4.33934 1.932 0
      vertex 4.33934 -1.932 0
    endloop
  endfacet
  facet normal 0 0 -1
    outer loop
      vertex 4.11362 -2.375 0
      vertex 4.11362 2.375 0
      vertex 4.33934 1.932 0
    endloop
  endfacet
  facet normal 0 0 -1
    outer loop
      vertex 3.84283 -2.79198 0
      vertex 4.11362 2.375 0
      vertex 4.11362 -2.375 0
    endloop
  endfacet
  facet normal 0 0 -1
    outer loop
      vertex 3.84283 -2.79198 0
      vertex 3.84283 2.79198 0
      vertex 4.11362 2.375 0
    endloop
  endfacet
  facet normal 0 0 -1
    outer loop
      vertex 3.52994 -3.17837 0
      vertex 3.84283 2.79198 0
      vertex 3.84283 -2.79198 0
    endloop
  endfacet
  facet normal 0 0 -1
    outer loop
      vertex 3.52994 -3.17837 0
      vertex 3.52994 3.17837 0
      vertex 3.84283 2.79198 0
    endloop
  endfacet
  facet normal 0 0 -1
    outer loop
      vertex 3.17837 -3.52994 0
      vertex 3.52994 3.17837 0
      vertex 3.52994 -3.17837 0
    endloop
  endfacet
  facet normal 0 0 -1
    outer loop
      vertex 3.17837 -3.52994 0
      vertex 3.17837 3.52994 0
      vertex 3.52994 3.17837 0
    endloop
  endfacet
  facet normal 0 0 -1
    outer loop
      vertex 2.79198 -3.84283 0
      vertex 3.17837 3.52994 0
      vertex 3.17837 -3.52994 0
    endloop
  endfacet
  facet normal 0 0 -1
    outer loop
      vertex 2.79198 -3.84283 0
      vertex 2.79198 3.84283 0
      vertex 3.17837 3.52994 0
    endloop
  endfacet
  facet normal 0 0 -1
    outer loop
      vertex 2.375 -4.11362 0
      vertex 2.79198 3.84283 0
      vertex 2.79198 -3.84283 0
    endloop
  endfacet
  facet normal 0 0 -1
    outer loop
      vertex 2.375 -4.11362 0
      vertex 2.375 4.11362 0
      vertex 2.79198 3.84283 0
    endloop
  endfacet
  facet normal 0 0 -1
    outer loop
      vertex 1.932 -4.33934 0
      vertex 2.375 4.11362 0
      vertex 2.375 -4.11362 0
    endloop
  endfacet
  facet normal 0 0 -1
    outer loop
      vertex 1.932 -4.33934 0
      vertex 1.932 4.33934 0
      vertex 2.375 4.11362 0
    endloop
  endfacet
  facet normal 0 0 -1
    outer loop
      vertex 1.46783 -4.51752 0
      vertex 1.932 4.33934 0
      vertex 1.932 -4.33934 0
    endloop
  endfacet
  facet normal 0 0 -1
    outer loop
      vertex 1.46783 -4.51752 0
      vertex 1.46783 4.51752 0
      vertex 1.932 4.33934 0
    endloop
  endfacet
  facet normal 0 0 -1
    outer loop
      vertex 0.98758 -4.6462 0
      vertex 1.46783 4.51752 0
      vertex 1.46783 -4.51752 0
    endloop
  endfacet
  facet normal 0 0 -1
    outer loop
      vertex 0.98758 -4.6462 0
      vertex 0.98758 4.6462 0
      vertex 1.46783 4.51752 0
    endloop
  endfacet
  facet normal 0 0 -1
    outer loop
      vertex 0.49651 -4.72398 0
      vertex 0.98758 4.6462 0
      vertex 0.98758 -4.6462 0
    endloop
  endfacet
  facet normal 0 0 -1
    outer loop
      vertex 0.49651 -4.72398 0
      vertex 0.49651 4.72398 0
      vertex 0.98758 4.6462 0
    endloop
  endfacet
  facet normal 0 0 -1
    outer loop
      vertex 0 -4.75 0
      vertex 0.49651 4.72398 0
      vertex 0.49651 -4.72398 0
    endloop
  endfacet
  facet normal 0 0 -1
    outer loop
      vertex 0 -4.75 0
      vertex 0 4.75 0
      vertex 0.49651 4.72398 0
    endloop
  endfacet
  facet normal 0 0 -1
    outer loop
      vertex -0.49651 -4.72398 0
      vertex 0 4.75 0
      vertex 0 -4.75 0
    endloop
  endfacet
  facet normal 0 0 -1
    outer loop
      vertex -0.49651 -4.72398 0
      vertex -0.49651 4.72398 0
      vertex 0 4.75 0
    endloop
  endfacet
  facet normal 0 0 -1
    outer loop
      vertex -0.98758 -4.6462 0
      vertex -0.49651 4.72398 0
      vertex -0.49651 -4.72398 0
    endloop
  endfacet
  facet normal 0 0 -1
    outer loop
      vertex -0.98758 -4.6462 0
      vertex -0.98758 4.6462 0
      vertex -0.49651 4.72398 0
    endloop
  endfacet
  facet normal 0 0 -1
    outer loop
      vertex -1.46783 -4.51752 0
      vertex -0.98758 4.6462 0
      vertex -0.98758 -4.6462 0
    endloop
  endfacet
  facet normal 0 0 -1
    outer loop
      vertex -1.46783 -4.51752 0
      vertex -1.46783 4.51752 0
      vertex -0.98758 4.6462 0
    endloop
  endfacet
  facet normal 0 0 -1
    outer loop
      vertex -1.932 -4.33934 0
      vertex -1.46783 4.51752 0
      vertex -1.46783 -4.51752 0
    endloop
  endfacet
  facet normal 0 0 -1
    outer loop
      vertex -1.932 -4.33934 0
      vertex -1.932 4.33934 0
      vertex -1.46783 4.51752 0
    endloop
  endfacet
  facet normal 0 0 -1
    outer loop
      vertex -1.932 -4.33934 0
      vertex -2.375 4.11362 0
      vertex -1.932 4.33934 0
    endloop
  endfacet
  facet normal 0 0 -1
    outer loop
      vertex -2.375 -4.11362 0
      vertex -2.375 4.11362 0
      vertex -1.932 -4.33934 0
    endloop
  endfacet
  facet normal 0 0 -1
    outer loop
      vertex -2.79198 -3.84283 0
      vertex -2.375 4.11362 0
      vertex -2.375 -4.11362 0
    endloop
  endfacet
  facet normal 0 0 -1
    outer loop
      vertex -2.79198 -3.84283 0
      vertex -2.79198 3.84283 0
      vertex -2.375 4.11362 0
    endloop
  endfacet
  facet normal 0 0 -1
    outer loop
      vertex -3.17837 -3.52994 0
      vertex -2.79198 3.84283 0
      vertex -2.79198 -3.84283 0
    endloop
  endfacet
  facet normal 0 0 -1
    outer loop
      vertex -3.17837 -3.52994 0
      vertex -3.17837 3.52994 0
      vertex -2.79198 3.84283 0
    endloop
  endfacet
  facet normal 0 0 -1
    outer loop
      vertex -3.52994 -3.17837 0
      vertex -3.17837 3.52994 0
      vertex -3.17837 -3.52994 0
    endloop
  endfacet
  facet normal 0 0 -1
    outer loop
      vertex -3.52994 -3.17837 0
      vertex -3.52994 3.17837 0
      vertex -3.17837 3.52994 0
    endloop
  endfacet
  facet normal 0 0 -1
    outer loop
      vertex -3.84283 -2.79198 0
      vertex -3.52994 3.17837 0
      vertex -3.52994 -3.17837 0
    endloop
  endfacet
  facet normal 0 0 -1
    outer loop
      vertex -3.84283 -2.79198 0
      vertex -3.84283 2.79198 0
      vertex -3.52994 3.17837 0
    endloop
  endfacet
  facet normal 0 0 -1
    outer loop
      vertex -4.11362 -2.375 0
      vertex -3.84283 2.79198 0
      vertex -3.84283 -2.79198 0
    endloop
  endfacet
  facet normal 0 0 -1
    outer loop
      vertex -4.11362 -2.375 0
      vertex -4.11362 2.375 0
      vertex -3.84283 2.79198 0
    endloop
  endfacet
  facet normal 0 0 -1
    outer loop
      vertex -4.33934 -1.932 0
      vertex -4.11362 2.375 0
      vertex -4.11362 -2.375 0
    endloop
  endfacet
  facet normal 0 0 -1
    outer loop
      vertex -4.33934 -1.932 0
      vertex -4.33934 1.932 0
      vertex -4.11362 2.375 0
    endloop
  endfacet
  facet normal 0 0 -1
    outer loop
      vertex -4.51752 -1.46783 0
      vertex -4.33934 1.932 0
      vertex -4.33934 -1.932 0
    endloop
  endfacet
  facet normal 0 0 -1
    outer loop
      vertex -4.51752 -1.46783 0
      vertex -4.51752 1.46783 0
      vertex -4.33934 1.932 0
    endloop
  endfacet
  facet normal 0 0 -1
    outer loop
      vertex -4.6462 -0.98758 0
      vertex -4.51752 1.46783 0
      vertex -4.51752 -1.46783 0
    endloop
  endfacet
  facet normal 0 0 -1
    outer loop
      vertex -4.6462 -0.98758 0
      vertex -4.6462 0.98758 0
      vertex -4.51752 1.46783 0
    endloop
  endfacet
  facet normal 0 0 -1
    outer loop
      vertex -4.72398 -0.49651 0
      vertex -4.6462 0.98758 0
      vertex -4.6462 -0.98758 0
    endloop
  endfacet
  facet normal 0 0 -1
    outer loop
      vertex -4.72398 -0.49651 0
      vertex -4.72398 0.49651 0
      vertex -4.6462 0.98758 0
    endloop
  endfacet
  facet normal 0 -0 -1
    outer loop
      vertex -4.72398 0.49651 0
      vertex -4.72398 -0.49651 0
      vertex -4.75 0 0
    endloop
  endfacet
  facet normal 0.93358 0.358369 0
    outer loop
      vertex 4.51752 1.46783 1
      vertex 4.33934 1.932 0
      vertex 4.33934 1.932 1
    endloop
  endfacet
  facet normal 0.93358 0.358369 0
    outer loop
      vertex 4.33934 1.932 0
      vertex 4.51752 1.46783 1
      vertex 4.51752 1.46783 0
    endloop
  endfacet
  facet normal 0.358369 0.93358 -0
    outer loop
      vertex 1.932 4.33934 0
      vertex 1.46783 4.51752 1
      vertex 1.932 4.33934 1
    endloop
  endfacet
  facet normal 0.358369 0.93358 0
    outer loop
      vertex 1.46783 4.51752 1
      vertex 1.932 4.33934 0
      vertex 1.46783 4.51752 0
    endloop
  endfacet
  facet normal -0.838672 0.544637 0
    outer loop
      vertex -4.11362 2.375 0
      vertex -3.84283 2.79198 1
      vertex -3.84283 2.79198 0
    endloop
  endfacet
  facet normal -0.838672 0.544637 0
    outer loop
      vertex -3.84283 2.79198 1
      vertex -4.11362 2.375 0
      vertex -4.11362 2.375 1
    endloop
  endfacet
  facet normal -0.777145 0.629321 0
    outer loop
      vertex -3.84283 2.79198 0
      vertex -3.52994 3.17837 1
      vertex -3.52994 3.17837 0
    endloop
  endfacet
  facet normal -0.777145 0.629321 0
    outer loop
      vertex -3.52994 3.17837 1
      vertex -3.84283 2.79198 0
      vertex -3.84283 2.79198 1
    endloop
  endfacet
  facet normal -0.052336 0.99863 0
    outer loop
      vertex 0 4.75 0
      vertex -0.49651 4.72398 1
      vertex 0 4.75 1
    endloop
  endfacet
  facet normal -0.052336 0.99863 0
    outer loop
      vertex -0.49651 4.72398 1
      vertex 0 4.75 0
      vertex -0.49651 4.72398 0
    endloop
  endfacet
  facet normal 0.891006 -0.453991 0
    outer loop
      vertex 4.11362 -2.375 1
      vertex 4.33934 -1.932 0
      vertex 4.33934 -1.932 1
    endloop
  endfacet
  facet normal 0.891006 -0.453991 0
    outer loop
      vertex 4.33934 -1.932 0
      vertex 4.11362 -2.375 1
      vertex 4.11362 -2.375 0
    endloop
  endfacet
  facet normal 0.258818 -0.965926 0
    outer loop
      vertex 0.98758 -4.6462 0
      vertex 1.46783 -4.51752 1
      vertex 0.98758 -4.6462 1
    endloop
  endfacet
  facet normal 0.258818 -0.965926 0
    outer loop
      vertex 1.46783 -4.51752 1
      vertex 0.98758 -4.6462 0
      vertex 1.46783 -4.51752 0
    endloop
  endfacet
  facet normal 0.707107 -0.707107 0
    outer loop
      vertex 3.17837 -3.52994 1
      vertex 3.52994 -3.17837 0
      vertex 3.52994 -3.17837 1
    endloop
  endfacet
  facet normal 0.707107 -0.707107 0
    outer loop
      vertex 3.52994 -3.17837 0
      vertex 3.17837 -3.52994 1
      vertex 3.17837 -3.52994 0
    endloop
  endfacet
  facet normal 0.965926 -0.258818 0
    outer loop
      vertex 4.51752 -1.46783 1
      vertex 4.6462 -0.98758 0
      vertex 4.6462 -0.98758 1
    endloop
  endfacet
  facet normal 0.965926 -0.258818 0
    outer loop
      vertex 4.6462 -0.98758 0
      vertex 4.51752 -1.46783 1
      vertex 4.51752 -1.46783 0
    endloop
  endfacet
  facet normal -0.358369 -0.93358 0
    outer loop
      vertex -1.932 -4.33934 0
      vertex -1.46783 -4.51752 1
      vertex -1.932 -4.33934 1
    endloop
  endfacet
  facet normal -0.358369 -0.93358 -0
    outer loop
      vertex -1.46783 -4.51752 1
      vertex -1.932 -4.33934 0
      vertex -1.46783 -4.51752 0
    endloop
  endfacet
  facet normal -0.777145 -0.629321 0
    outer loop
      vertex -3.52994 -3.17837 0
      vertex -3.84283 -2.79198 1
      vertex -3.84283 -2.79198 0
    endloop
  endfacet
  facet normal -0.777145 -0.629321 0
    outer loop
      vertex -3.84283 -2.79198 1
      vertex -3.52994 -3.17837 0
      vertex -3.52994 -3.17837 1
    endloop
  endfacet
  facet normal -0.838672 -0.544637 0
    outer loop
      vertex -3.84283 -2.79198 0
      vertex -4.11362 -2.375 1
      vertex -4.11362 -2.375 0
    endloop
  endfacet
  facet normal -0.838672 -0.544637 0
    outer loop
      vertex -4.11362 -2.375 1
      vertex -3.84283 -2.79198 0
      vertex -3.84283 -2.79198 1
    endloop
  endfacet
  facet normal -0.99863 -0.052336 0
    outer loop
      vertex -4.72398 -0.49651 0
      vertex -4.75 0 1
      vertex -4.75 0 0
    endloop
  endfacet
  facet normal -0.99863 -0.052336 0
    outer loop
      vertex -4.75 0 1
      vertex -4.72398 -0.49651 0
      vertex -4.72398 -0.49651 1
    endloop
  endfacet
  facet normal 0.965926 0.258818 0
    outer loop
      vertex 4.6462 0.98758 1
      vertex 4.51752 1.46783 0
      vertex 4.51752 1.46783 1
    endloop
  endfacet
  facet normal 0.965926 0.258818 0
    outer loop
      vertex 4.51752 1.46783 0
      vertex 4.6462 0.98758 1
      vertex 4.6462 0.98758 0
    endloop
  endfacet
  facet normal 0.987688 0.156436 0
    outer loop
      vertex 4.72398 0.49651 1
      vertex 4.6462 0.98758 0
      vertex 4.6462 0.98758 1
    endloop
  endfacet
  facet normal 0.987688 0.156436 0
    outer loop
      vertex 4.6462 0.98758 0
      vertex 4.72398 0.49651 1
      vertex 4.72398 0.49651 0
    endloop
  endfacet
  facet normal 0.838672 0.544637 0
    outer loop
      vertex 4.11362 2.375 1
      vertex 3.84283 2.79198 0
      vertex 3.84283 2.79198 1
    endloop
  endfacet
  facet normal 0.838672 0.544637 0
    outer loop
      vertex 3.84283 2.79198 0
      vertex 4.11362 2.375 1
      vertex 4.11362 2.375 0
    endloop
  endfacet
  facet normal 0.891006 0.453991 0
    outer loop
      vertex 4.33934 1.932 1
      vertex 4.11362 2.375 0
      vertex 4.11362 2.375 1
    endloop
  endfacet
  facet normal 0.891006 0.453991 0
    outer loop
      vertex 4.11362 2.375 0
      vertex 4.33934 1.932 1
      vertex 4.33934 1.932 0
    endloop
  endfacet
  facet normal 0.258818 0.965926 -0
    outer loop
      vertex 1.46783 4.51752 0
      vertex 0.98758 4.6462 1
      vertex 1.46783 4.51752 1
    endloop
  endfacet
  facet normal 0.258818 0.965926 0
    outer loop
      vertex 0.98758 4.6462 1
      vertex 1.46783 4.51752 0
      vertex 0.98758 4.6462 0
    endloop
  endfacet
  facet normal 0.156436 0.987688 -0
    outer loop
      vertex 0.98758 4.6462 0
      vertex 0.49651 4.72398 1
      vertex 0.98758 4.6462 1
    endloop
  endfacet
  facet normal 0.156436 0.987688 0
    outer loop
      vertex 0.49651 4.72398 1
      vertex 0.98758 4.6462 0
      vertex 0.49651 4.72398 0
    endloop
  endfacet
  facet normal 0.544638 0.838671 -0
    outer loop
      vertex 2.79198 3.84283 0
      vertex 2.375 4.11362 1
      vertex 2.79198 3.84283 1
    endloop
  endfacet
  facet normal 0.544638 0.838671 0
    outer loop
      vertex 2.375 4.11362 1
      vertex 2.79198 3.84283 0
      vertex 2.375 4.11362 0
    endloop
  endfacet
  facet normal 0.45399 0.891007 -0
    outer loop
      vertex 2.375 4.11362 0
      vertex 1.932 4.33934 1
      vertex 2.375 4.11362 1
    endloop
  endfacet
  facet normal 0.45399 0.891007 0
    outer loop
      vertex 1.932 4.33934 1
      vertex 2.375 4.11362 0
      vertex 1.932 4.33934 0
    endloop
  endfacet
  facet normal 0.629321 0.777145 -0
    outer loop
      vertex 3.17837 3.52994 0
      vertex 2.79198 3.84283 1
      vertex 3.17837 3.52994 1
    endloop
  endfacet
  facet normal 0.629321 0.777145 0
    outer loop
      vertex 2.79198 3.84283 1
      vertex 3.17837 3.52994 0
      vertex 2.79198 3.84283 0
    endloop
  endfacet
  facet normal -0.965926 0.258818 0
    outer loop
      vertex -4.6462 0.98758 0
      vertex -4.51752 1.46783 1
      vertex -4.51752 1.46783 0
    endloop
  endfacet
  facet normal -0.965926 0.258818 0
    outer loop
      vertex -4.51752 1.46783 1
      vertex -4.6462 0.98758 0
      vertex -4.6462 0.98758 1
    endloop
  endfacet
  facet normal -0.707107 0.707107 0
    outer loop
      vertex -3.52994 3.17837 0
      vertex -3.17837 3.52994 1
      vertex -3.17837 3.52994 0
    endloop
  endfacet
  facet normal -0.707107 0.707107 0
    outer loop
      vertex -3.17837 3.52994 1
      vertex -3.52994 3.17837 0
      vertex -3.52994 3.17837 1
    endloop
  endfacet
  facet normal -0.891006 0.453991 0
    outer loop
      vertex -4.33934 1.932 0
      vertex -4.11362 2.375 1
      vertex -4.11362 2.375 0
    endloop
  endfacet
  facet normal -0.891006 0.453991 0
    outer loop
      vertex -4.11362 2.375 1
      vertex -4.33934 1.932 0
      vertex -4.33934 1.932 1
    endloop
  endfacet
  facet normal -0.93358 0.358369 0
    outer loop
      vertex -4.51752 1.46783 0
      vertex -4.33934 1.932 1
      vertex -4.33934 1.932 0
    endloop
  endfacet
  facet normal -0.93358 0.358369 0
    outer loop
      vertex -4.33934 1.932 1
      vertex -4.51752 1.46783 0
      vertex -4.51752 1.46783 1
    endloop
  endfacet
  facet normal -0.987688 0.156436 0
    outer loop
      vertex -4.72398 0.49651 0
      vertex -4.6462 0.98758 1
      vertex -4.6462 0.98758 0
    endloop
  endfacet
  facet normal -0.987688 0.156436 0
    outer loop
      vertex -4.6462 0.98758 1
      vertex -4.72398 0.49651 0
      vertex -4.72398 0.49651 1
    endloop
  endfacet
  facet normal 0 0 1
    outer loop
      vertex 3.5 0 1
      vertex 4.75 0 1
      vertex 4.72398 0.49651 1
    endloop
  endfacet
  facet normal -0 0 1
    outer loop
      vertex 3.46437 0.498101 1
      vertex 4.72398 0.49651 1
      vertex 4.6462 0.98758 1
    endloop
  endfacet
  facet normal 0 0 1
    outer loop
      vertex 4.75 0 1
      vertex 3.5 0 1
      vertex 4.72398 -0.49651 1
    endloop
  endfacet
  facet normal 0 0 1
    outer loop
      vertex 3.35822 0.986063 1
      vertex 4.6462 0.98758 1
      vertex 4.51752 1.46783 1
    endloop
  endfacet
  facet normal 0 0 1
    outer loop
      vertex 3.46437 -0.498101 1
      vertex 4.72398 -0.49651 1
      vertex 3.5 0 1
    endloop
  endfacet
  facet normal 0 0 1
    outer loop
      vertex 3.18371 1.45395 1
      vertex 4.51752 1.46783 1
      vertex 4.33934 1.932 1
    endloop
  endfacet
  facet normal 0 0 1
    outer loop
      vertex 4.72398 -0.49651 1
      vertex 3.46437 -0.498101 1
      vertex 4.6462 -0.98758 1
    endloop
  endfacet
  facet normal 0 0 1
    outer loop
      vertex 3.18371 1.45395 1
      vertex 4.33934 1.932 1
      vertex 4.11362 2.375 1
    endloop
  endfacet
  facet normal -0 0 1
    outer loop
      vertex 3.35822 -0.986063 1
      vertex 4.6462 -0.98758 1
      vertex 3.46437 -0.498101 1
    endloop
  endfacet
  facet normal 0 0 1
    outer loop
      vertex 2.94439 1.89224 1
      vertex 4.11362 2.375 1
      vertex 3.84283 2.79198 1
    endloop
  endfacet
  facet normal 0 0 1
    outer loop
      vertex 4.6462 -0.98758 1
      vertex 3.35822 -0.986063 1
      vertex 4.51752 -1.46783 1
    endloop
  endfacet
  facet normal 0 0 1
    outer loop
      vertex 2.64512 2.29201 1
      vertex 3.84283 2.79198 1
      vertex 3.52994 3.17837 1
    endloop
  endfacet
  facet normal -0 0 1
    outer loop
      vertex 3.18371 -1.45395 1
      vertex 4.51752 -1.46783 1
      vertex 3.35822 -0.986063 1
    endloop
  endfacet
  facet normal 0 0 1
    outer loop
      vertex 4.51752 -1.46783 1
      vertex 3.18371 -1.45395 1
      vertex 4.33934 -1.932 1
    endloop
  endfacet
  facet normal 0 0 1
    outer loop
      vertex 4.72398 0.49651 1
      vertex 3.46437 0.498101 1
      vertex 3.5 0 1
    endloop
  endfacet
  facet normal 0 0 1
    outer loop
      vertex 4.6462 0.98758 1
      vertex 3.35822 0.986063 1
      vertex 3.46437 0.498101 1
    endloop
  endfacet
  facet normal 0 0 1
    outer loop
      vertex 4.51752 1.46783 1
      vertex 3.18371 1.45395 1
      vertex 3.35822 0.986063 1
    endloop
  endfacet
  facet normal 0 0 1
    outer loop
      vertex 2.64512 2.29201 1
      vertex 3.52994 3.17837 1
      vertex 3.17837 3.52994 1
    endloop
  endfacet
  facet normal 0 0 1
    outer loop
      vertex 4.11362 2.375 1
      vertex 2.94439 1.89224 1
      vertex 3.18371 1.45395 1
    endloop
  endfacet
  facet normal 0 0 1
    outer loop
      vertex 2.29201 2.64512 1
      vertex 3.17837 3.52994 1
      vertex 2.79198 3.84283 1
    endloop
  endfacet
  facet normal 0 0 1
    outer loop
      vertex 3.84283 2.79198 1
      vertex 2.64512 2.29201 1
      vertex 2.94439 1.89224 1
    endloop
  endfacet
  facet normal 0 0 1
    outer loop
      vertex 1.89224 2.94439 1
      vertex 2.79198 3.84283 1
      vertex 2.375 4.11362 1
    endloop
  endfacet
  facet normal 0 0 1
    outer loop
      vertex 3.17837 3.52994 1
      vertex 2.29201 2.64512 1
      vertex 2.64512 2.29201 1
    endloop
  endfacet
  facet normal 0 0 1
    outer loop
      vertex 1.45395 3.18371 1
      vertex 2.375 4.11362 1
      vertex 1.932 4.33934 1
    endloop
  endfacet
  facet normal 0 0 1
    outer loop
      vertex 2.79198 3.84283 1
      vertex 1.89224 2.94439 1
      vertex 2.29201 2.64512 1
    endloop
  endfacet
  facet normal 0 0 1
    outer loop
      vertex 1.45395 3.18371 1
      vertex 1.932 4.33934 1
      vertex 1.46783 4.51752 1
    endloop
  endfacet
  facet normal 0 0 1
    outer loop
      vertex 2.375 4.11362 1
      vertex 1.45395 3.18371 1
      vertex 1.89224 2.94439 1
    endloop
  endfacet
  facet normal 0 0 1
    outer loop
      vertex 0.986063 3.35822 1
      vertex 1.46783 4.51752 1
      vertex 0.98758 4.6462 1
    endloop
  endfacet
  facet normal 0 0 1
    outer loop
      vertex 1.46783 4.51752 1
      vertex 0.986063 3.35822 1
      vertex 1.45395 3.18371 1
    endloop
  endfacet
  facet normal 0 0 1
    outer loop
      vertex 0.98758 4.6462 1
      vertex 0.498101 3.46437 1
      vertex 0.986063 3.35822 1
    endloop
  endfacet
  facet normal 0 0 1
    outer loop
      vertex 0.49651 4.72398 1
      vertex 0.498101 3.46437 1
      vertex 0.98758 4.6462 1
    endloop
  endfacet
  facet normal 0 0 1
    outer loop
      vertex 0 3.5 1
      vertex 0.49651 4.72398 1
      vertex 0 4.75 1
    endloop
  endfacet
  facet normal 0 0 1
    outer loop
      vertex 0.49651 4.72398 1
      vertex 0 3.5 1
      vertex 0.498101 3.46437 1
    endloop
  endfacet
  facet normal -0 0 1
    outer loop
      vertex -0.49651 4.72398 1
      vertex 0 3.5 1
      vertex 0 4.75 1
    endloop
  endfacet
  facet normal 0 0 1
    outer loop
      vertex -0.49651 4.72398 1
      vertex -0.498101 3.46437 1
      vertex 0 3.5 1
    endloop
  endfacet
  facet normal -0 0 1
    outer loop
      vertex -0.98758 4.6462 1
      vertex -0.498101 3.46437 1
      vertex -0.49651 4.72398 1
    endloop
  endfacet
  facet normal 0 0 1
    outer loop
      vertex -0.498101 3.46437 1
      vertex -0.98758 4.6462 1
      vertex -0.986063 3.35822 1
    endloop
  endfacet
  facet normal -0 0 1
    outer loop
      vertex -1.46783 4.51752 1
      vertex -0.986063 3.35822 1
      vertex -0.98758 4.6462 1
    endloop
  endfacet
  facet normal 0 0 1
    outer loop
      vertex -0.986063 3.35822 1
      vertex -1.46783 4.51752 1
      vertex -1.45395 3.18371 1
    endloop
  endfacet
  facet normal -0 0 1
    outer loop
      vertex -1.932 4.33934 1
      vertex -1.45395 3.18371 1
      vertex -1.46783 4.51752 1
    endloop
  endfacet
  facet normal -0 0 1
    outer loop
      vertex -2.375 4.11362 1
      vertex -1.45395 3.18371 1
      vertex -1.932 4.33934 1
    endloop
  endfacet
  facet normal 0 0 1
    outer loop
      vertex -1.45395 3.18371 1
      vertex -2.375 4.11362 1
      vertex -1.89224 2.94439 1
    endloop
  endfacet
  facet normal -0 0 1
    outer loop
      vertex -2.79198 3.84283 1
      vertex -1.89224 2.94439 1
      vertex -2.375 4.11362 1
    endloop
  endfacet
  facet normal 0 0 1
    outer loop
      vertex -1.89224 2.94439 1
      vertex -2.79198 3.84283 1
      vertex -2.29201 2.64512 1
    endloop
  endfacet
  facet normal -0 0 1
    outer loop
      vertex -3.17837 3.52994 1
      vertex -2.29201 2.64512 1
      vertex -2.79198 3.84283 1
    endloop
  endfacet
  facet normal 0 0 1
    outer loop
      vertex -2.29201 2.64512 1
      vertex -3.17837 3.52994 1
      vertex -2.64512 2.29201 1
    endloop
  endfacet
  facet normal -0 0 1
    outer loop
      vertex -3.52994 3.17837 1
      vertex -2.64512 2.29201 1
      vertex -3.17837 3.52994 1
    endloop
  endfacet
  facet normal -0 0 1
    outer loop
      vertex -3.84283 2.79198 1
      vertex -2.64512 2.29201 1
      vertex -3.52994 3.17837 1
    endloop
  endfacet
  facet normal 0 0 1
    outer loop
      vertex -2.64512 2.29201 1
      vertex -3.84283 2.79198 1
      vertex -2.94439 1.89224 1
    endloop
  endfacet
  facet normal -0 0 1
    outer loop
      vertex -4.11362 2.375 1
      vertex -2.94439 1.89224 1
      vertex -3.84283 2.79198 1
    endloop
  endfacet
  facet normal -0 0 1
    outer loop
      vertex -4.33934 1.932 1
      vertex -3.18371 1.45395 1
      vertex -4.11362 2.375 1
    endloop
  endfacet
  facet normal 0 0 1
    outer loop
      vertex -2.94439 1.89224 1
      vertex -4.11362 2.375 1
      vertex -3.18371 1.45395 1
    endloop
  endfacet
  facet normal 0 0 1
    outer loop
      vertex 4.33934 -1.932 1
      vertex 3.18371 -1.45395 1
      vertex 4.11362 -2.375 1
    endloop
  endfacet
  facet normal -0 0 1
    outer loop
      vertex 2.94439 -1.89224 1
      vertex 4.11362 -2.375 1
      vertex 3.18371 -1.45395 1
    endloop
  endfacet
  facet normal 0 0 1
    outer loop
      vertex 4.11362 -2.375 1
      vertex 2.94439 -1.89224 1
      vertex 3.84283 -2.79198 1
    endloop
  endfacet
  facet normal -0 0 1
    outer loop
      vertex 2.64512 -2.29201 1
      vertex 3.84283 -2.79198 1
      vertex 2.94439 -1.89224 1
    endloop
  endfacet
  facet normal 0 0 1
    outer loop
      vertex 3.84283 -2.79198 1
      vertex 2.64512 -2.29201 1
      vertex 3.52994 -3.17837 1
    endloop
  endfacet
  facet normal 0 0 1
    outer loop
      vertex 3.52994 -3.17837 1
      vertex 2.64512 -2.29201 1
      vertex 3.17837 -3.52994 1
    endloop
  endfacet
  facet normal -0 0 1
    outer loop
      vertex 2.29201 -2.64512 1
      vertex 3.17837 -3.52994 1
      vertex 2.64512 -2.29201 1
    endloop
  endfacet
  facet normal 0 0 1
    outer loop
      vertex 3.17837 -3.52994 1
      vertex 2.29201 -2.64512 1
      vertex 2.79198 -3.84283 1
    endloop
  endfacet
  facet normal -0 0 1
    outer loop
      vertex 1.89224 -2.94439 1
      vertex 2.79198 -3.84283 1
      vertex 2.29201 -2.64512 1
    endloop
  endfacet
  facet normal 0 0 1
    outer loop
      vertex 2.79198 -3.84283 1
      vertex 1.89224 -2.94439 1
      vertex 2.375 -4.11362 1
    endloop
  endfacet
  facet normal -0 0 1
    outer loop
      vertex 1.45395 -3.18371 1
      vertex 2.375 -4.11362 1
      vertex 1.89224 -2.94439 1
    endloop
  endfacet
  facet normal 0 0 1
    outer loop
      vertex 2.375 -4.11362 1
      vertex 1.45395 -3.18371 1
      vertex 1.932 -4.33934 1
    endloop
  endfacet
  facet normal 0 0 1
    outer loop
      vertex 1.932 -4.33934 1
      vertex 1.45395 -3.18371 1
      vertex 1.46783 -4.51752 1
    endloop
  endfacet
  facet normal -0 0 1
    outer loop
      vertex 0.986063 -3.35822 1
      vertex 1.46783 -4.51752 1
      vertex 1.45395 -3.18371 1
    endloop
  endfacet
  facet normal 0 0 1
    outer loop
      vertex 1.46783 -4.51752 1
      vertex 0.986063 -3.35822 1
      vertex 0.98758 -4.6462 1
    endloop
  endfacet
  facet normal -0 0 1
    outer loop
      vertex 0.498101 -3.46437 1
      vertex 0.98758 -4.6462 1
      vertex 0.986063 -3.35822 1
    endloop
  endfacet
  facet normal 0 0 1
    outer loop
      vertex 0.498101 -3.46437 1
      vertex 0.49651 -4.72398 1
      vertex 0.98758 -4.6462 1
    endloop
  endfacet
  facet normal -0 0 1
    outer loop
      vertex 0 -3.5 1
      vertex 0.49651 -4.72398 1
      vertex 0.498101 -3.46437 1
    endloop
  endfacet
  facet normal 0 0 1
    outer loop
      vertex 0 -3.5 1
      vertex 0 -4.75 1
      vertex 0.49651 -4.72398 1
    endloop
  endfacet
  facet normal 0 0 1
    outer loop
      vertex 0 -3.5 1
      vertex -0.49651 -4.72398 1
      vertex 0 -4.75 1
    endloop
  endfacet
  facet normal 0 0 1
    outer loop
      vertex -0.498101 -3.46437 1
      vertex -0.49651 -4.72398 1
      vertex 0 -3.5 1
    endloop
  endfacet
  facet normal 0 0 1
    outer loop
      vertex -0.98758 -4.6462 1
      vertex -0.498101 -3.46437 1
      vertex -0.986063 -3.35822 1
    endloop
  endfacet
  facet normal 0 0 1
    outer loop
      vertex -0.498101 -3.46437 1
      vertex -0.98758 -4.6462 1
      vertex -0.49651 -4.72398 1
    endloop
  endfacet
  facet normal 0 0 1
    outer loop
      vertex -1.46783 -4.51752 1
      vertex -0.986063 -3.35822 1
      vertex -1.45395 -3.18371 1
    endloop
  endfacet
  facet normal 0 0 1
    outer loop
      vertex -0.986063 -3.35822 1
      vertex -1.46783 -4.51752 1
      vertex -0.98758 -4.6462 1
    endloop
  endfacet
  facet normal 0 0 1
    outer loop
      vertex -2.375 -4.11362 1
      vertex -1.45395 -3.18371 1
      vertex -1.89224 -2.94439 1
    endloop
  endfacet
  facet normal 0 0 1
    outer loop
      vertex -1.45395 -3.18371 1
      vertex -1.932 -4.33934 1
      vertex -1.46783 -4.51752 1
    endloop
  endfacet
  facet normal 0 0 1
    outer loop
      vertex -2.79198 -3.84283 1
      vertex -1.89224 -2.94439 1
      vertex -2.29201 -2.64512 1
    endloop
  endfacet
  facet normal 0 0 1
    outer loop
      vertex -1.45395 -3.18371 1
      vertex -2.375 -4.11362 1
      vertex -1.932 -4.33934 1
    endloop
  endfacet
  facet normal 0 0 1
    outer loop
      vertex -3.17837 -3.52994 1
      vertex -2.29201 -2.64512 1
      vertex -2.64512 -2.29201 1
    endloop
  endfacet
  facet normal 0 0 1
    outer loop
      vertex -1.89224 -2.94439 1
      vertex -2.79198 -3.84283 1
      vertex -2.375 -4.11362 1
    endloop
  endfacet
  facet normal 0 0 1
    outer loop
      vertex -3.84283 -2.79198 1
      vertex -2.64512 -2.29201 1
      vertex -2.94439 -1.89224 1
    endloop
  endfacet
  facet normal 0 0 1
    outer loop
      vertex -2.29201 -2.64512 1
      vertex -3.17837 -3.52994 1
      vertex -2.79198 -3.84283 1
    endloop
  endfacet
  facet normal 0 0 1
    outer loop
      vertex -4.11362 -2.375 1
      vertex -2.94439 -1.89224 1
      vertex -3.18371 -1.45395 1
    endloop
  endfacet
  facet normal 0 0 1
    outer loop
      vertex -4.51752 -1.46783 1
      vertex -3.18371 -1.45395 1
      vertex -3.35822 -0.986063 1
    endloop
  endfacet
  facet normal 0 0 1
    outer loop
      vertex -4.6462 -0.98758 1
      vertex -3.35822 -0.986063 1
      vertex -3.46437 -0.498101 1
    endloop
  endfacet
  facet normal 0 0 1
    outer loop
      vertex -2.64512 -2.29201 1
      vertex -3.52994 -3.17837 1
      vertex -3.17837 -3.52994 1
    endloop
  endfacet
  facet normal -0 0 1
    outer loop
      vertex -4.72398 -0.49651 1
      vertex -3.46437 -0.498101 1
      vertex -3.5 0 1
    endloop
  endfacet
  facet normal -0 0 1
    outer loop
      vertex -4.51752 1.46783 1
      vertex -3.18371 1.45395 1
      vertex -4.33934 1.932 1
    endloop
  endfacet
  facet normal 0 0 1
    outer loop
      vertex -3.18371 1.45395 1
      vertex -4.51752 1.46783 1
      vertex -3.35822 0.986063 1
    endloop
  endfacet
  facet normal 0 0 1
    outer loop
      vertex -2.64512 -2.29201 1
      vertex -3.84283 -2.79198 1
      vertex -3.52994 -3.17837 1
    endloop
  endfacet
  facet normal -0 0 1
    outer loop
      vertex -4.6462 0.98758 1
      vertex -3.35822 0.986063 1
      vertex -4.51752 1.46783 1
    endloop
  endfacet
  facet normal 0 0 1
    outer loop
      vertex -2.94439 -1.89224 1
      vertex -4.11362 -2.375 1
      vertex -3.84283 -2.79198 1
    endloop
  endfacet
  facet normal 0 0 1
    outer loop
      vertex -3.35822 0.986063 1
      vertex -4.6462 0.98758 1
      vertex -3.46437 0.498101 1
    endloop
  endfacet
  facet normal 0 0 1
    outer loop
      vertex -3.18371 -1.45395 1
      vertex -4.33934 -1.932 1
      vertex -4.11362 -2.375 1
    endloop
  endfacet
  facet normal 0 0 1
    outer loop
      vertex -4.72398 0.49651 1
      vertex -3.46437 0.498101 1
      vertex -4.6462 0.98758 1
    endloop
  endfacet
  facet normal 0 0 1
    outer loop
      vertex -3.18371 -1.45395 1
      vertex -4.51752 -1.46783 1
      vertex -4.33934 -1.932 1
    endloop
  endfacet
  facet normal 0 0 1
    outer loop
      vertex -3.46437 0.498101 1
      vertex -4.72398 0.49651 1
      vertex -3.5 0 1
    endloop
  endfacet
  facet normal 0 0 1
    outer loop
      vertex -3.35822 -0.986063 1
      vertex -4.6462 -0.98758 1
      vertex -4.51752 -1.46783 1
    endloop
  endfacet
  facet normal 0 0 1
    outer loop
      vertex -4.75 0 1
      vertex -3.5 0 1
      vertex -4.72398 0.49651 1
    endloop
  endfacet
  facet normal 0 0 1
    outer loop
      vertex -3.46437 -0.498101 1
      vertex -4.72398 -0.49651 1
      vertex -4.6462 -0.98758 1
    endloop
  endfacet
  facet normal 0 0 1
    outer loop
      vertex -3.5 0 1
      vertex -4.75 0 1
      vertex -4.72398 -0.49651 1
    endloop
  endfacet
  facet normal -0.358369 0.93358 0
    outer loop
      vertex -1.46783 4.51752 0
      vertex -1.932 4.33934 1
      vertex -1.46783 4.51752 1
    endloop
  endfacet
  facet normal -0.358369 0.93358 0
    outer loop
      vertex -1.932 4.33934 1
      vertex -1.46783 4.51752 0
      vertex -1.932 4.33934 0
    endloop
  endfacet
  facet normal -0.453991 0.891006 0
    outer loop
      vertex -1.932 4.33934 0
      vertex -2.375 4.11362 1
      vertex -1.932 4.33934 1
    endloop
  endfacet
  facet normal -0.453991 0.891006 0
    outer loop
      vertex -2.375 4.11362 1
      vertex -1.932 4.33934 0
      vertex -2.375 4.11362 0
    endloop
  endfacet
  facet normal -0.544637 0.838672 0
    outer loop
      vertex -2.375 4.11362 0
      vertex -2.79198 3.84283 1
      vertex -2.375 4.11362 1
    endloop
  endfacet
  facet normal -0.544637 0.838672 0
    outer loop
      vertex -2.79198 3.84283 1
      vertex -2.375 4.11362 0
      vertex -2.79198 3.84283 0
    endloop
  endfacet
  facet normal 0.052336 -0.99863 0
    outer loop
      vertex 0 -4.75 0
      vertex 0.49651 -4.72398 1
      vertex 0 -4.75 1
    endloop
  endfacet
  facet normal 0.052336 -0.99863 0
    outer loop
      vertex 0.49651 -4.72398 1
      vertex 0 -4.75 0
      vertex 0.49651 -4.72398 0
    endloop
  endfacet
  facet normal 0.45399 -0.891007 0
    outer loop
      vertex 1.932 -4.33934 0
      vertex 2.375 -4.11362 1
      vertex 1.932 -4.33934 1
    endloop
  endfacet
  facet normal 0.45399 -0.891007 0
    outer loop
      vertex 2.375 -4.11362 1
      vertex 1.932 -4.33934 0
      vertex 2.375 -4.11362 0
    endloop
  endfacet
  facet normal 0.629321 -0.777145 0
    outer loop
      vertex 2.79198 -3.84283 0
      vertex 3.17837 -3.52994 1
      vertex 2.79198 -3.84283 1
    endloop
  endfacet
  facet normal 0.629321 -0.777145 0
    outer loop
      vertex 3.17837 -3.52994 1
      vertex 2.79198 -3.84283 0
      vertex 3.17837 -3.52994 0
    endloop
  endfacet
  facet normal 0.777145 -0.629321 0
    outer loop
      vertex 3.52994 -3.17837 1
      vertex 3.84283 -2.79198 0
      vertex 3.84283 -2.79198 1
    endloop
  endfacet
  facet normal 0.777145 -0.629321 0
    outer loop
      vertex 3.84283 -2.79198 0
      vertex 3.52994 -3.17837 1
      vertex 3.52994 -3.17837 0
    endloop
  endfacet
  facet normal 0.838672 -0.544637 0
    outer loop
      vertex 3.84283 -2.79198 1
      vertex 4.11362 -2.375 0
      vertex 4.11362 -2.375 1
    endloop
  endfacet
  facet normal 0.838672 -0.544637 0
    outer loop
      vertex 4.11362 -2.375 0
      vertex 3.84283 -2.79198 1
      vertex 3.84283 -2.79198 0
    endloop
  endfacet
  facet normal -0.707107 -0.707107 0
    outer loop
      vertex -3.17837 -3.52994 0
      vertex -3.52994 -3.17837 1
      vertex -3.52994 -3.17837 0
    endloop
  endfacet
  facet normal -0.707107 -0.707107 0
    outer loop
      vertex -3.52994 -3.17837 1
      vertex -3.17837 -3.52994 0
      vertex -3.17837 -3.52994 1
    endloop
  endfacet
  facet normal -0.629321 -0.777145 0
    outer loop
      vertex -3.17837 -3.52994 0
      vertex -2.79198 -3.84283 1
      vertex -3.17837 -3.52994 1
    endloop
  endfacet
  facet normal -0.629321 -0.777145 -0
    outer loop
      vertex -2.79198 -3.84283 1
      vertex -3.17837 -3.52994 0
      vertex -2.79198 -3.84283 0
    endloop
  endfacet
  facet normal -0.544638 -0.838671 0
    outer loop
      vertex -2.79198 -3.84283 0
      vertex -2.375 -4.11362 1
      vertex -2.79198 -3.84283 1
    endloop
  endfacet
  facet normal -0.544638 -0.838671 -0
    outer loop
      vertex -2.375 -4.11362 1
      vertex -2.79198 -3.84283 0
      vertex -2.375 -4.11362 0
    endloop
  endfacet
  facet normal -0.156436 -0.987688 0
    outer loop
      vertex -0.98758 -4.6462 0
      vertex -0.49651 -4.72398 1
      vertex -0.98758 -4.6462 1
    endloop
  endfacet
  facet normal -0.156436 -0.987688 -0
    outer loop
      vertex -0.49651 -4.72398 1
      vertex -0.98758 -4.6462 0
      vertex -0.49651 -4.72398 0
    endloop
  endfacet
  facet normal -0.93358 -0.358369 0
    outer loop
      vertex -4.33934 -1.932 0
      vertex -4.51752 -1.46783 1
      vertex -4.51752 -1.46783 0
    endloop
  endfacet
  facet normal -0.93358 -0.358369 0
    outer loop
      vertex -4.51752 -1.46783 1
      vertex -4.33934 -1.932 0
      vertex -4.33934 -1.932 1
    endloop
  endfacet
  facet normal -0.965926 -0.258818 0
    outer loop
      vertex -4.51752 -1.46783 0
      vertex -4.6462 -0.98758 1
      vertex -4.6462 -0.98758 0
    endloop
  endfacet
  facet normal -0.965926 -0.258818 0
    outer loop
      vertex -4.6462 -0.98758 1
      vertex -4.51752 -1.46783 0
      vertex -4.51752 -1.46783 1
    endloop
  endfacet
  facet normal 0.777145 0.629321 0
    outer loop
      vertex 3.84283 2.79198 1
      vertex 3.52994 3.17837 0
      vertex 3.52994 3.17837 1
    endloop
  endfacet
  facet normal 0.777145 0.629321 0
    outer loop
      vertex 3.52994 3.17837 0
      vertex 3.84283 2.79198 1
      vertex 3.84283 2.79198 0
    endloop
  endfacet
  facet normal -0.156436 0.987688 0
    outer loop
      vertex -0.49651 4.72398 0
      vertex -0.98758 4.6462 1
      vertex -0.49651 4.72398 1
    endloop
  endfacet
  facet normal -0.156436 0.987688 0
    outer loop
      vertex -0.98758 4.6462 1
      vertex -0.49651 4.72398 0
      vertex -0.98758 4.6462 0
    endloop
  endfacet
  facet normal 0.156436 -0.987688 0
    outer loop
      vertex 0.49651 -4.72398 0
      vertex 0.98758 -4.6462 1
      vertex 0.49651 -4.72398 1
    endloop
  endfacet
  facet normal 0.156436 -0.987688 0
    outer loop
      vertex 0.98758 -4.6462 1
      vertex 0.49651 -4.72398 0
      vertex 0.98758 -4.6462 0
    endloop
  endfacet
  facet normal 0.358369 -0.93358 0
    outer loop
      vertex 1.46783 -4.51752 0
      vertex 1.932 -4.33934 1
      vertex 1.46783 -4.51752 1
    endloop
  endfacet
  facet normal 0.358369 -0.93358 0
    outer loop
      vertex 1.932 -4.33934 1
      vertex 1.46783 -4.51752 0
      vertex 1.932 -4.33934 0
    endloop
  endfacet
  facet normal 0.544638 -0.838671 0
    outer loop
      vertex 2.375 -4.11362 0
      vertex 2.79198 -3.84283 1
      vertex 2.375 -4.11362 1
    endloop
  endfacet
  facet normal 0.544638 -0.838671 0
    outer loop
      vertex 2.79198 -3.84283 1
      vertex 2.375 -4.11362 0
      vertex 2.79198 -3.84283 0
    endloop
  endfacet
  facet normal 0.93358 -0.358369 0
    outer loop
      vertex 4.33934 -1.932 1
      vertex 4.51752 -1.46783 0
      vertex 4.51752 -1.46783 1
    endloop
  endfacet
  facet normal 0.93358 -0.358369 0
    outer loop
      vertex 4.51752 -1.46783 0
      vertex 4.33934 -1.932 1
      vertex 4.33934 -1.932 0
    endloop
  endfacet
  facet normal 0.987688 -0.156436 0
    outer loop
      vertex 4.6462 -0.98758 1
      vertex 4.72398 -0.49651 0
      vertex 4.72398 -0.49651 1
    endloop
  endfacet
  facet normal 0.987688 -0.156436 0
    outer loop
      vertex 4.72398 -0.49651 0
      vertex 4.6462 -0.98758 1
      vertex 4.6462 -0.98758 0
    endloop
  endfacet
  facet normal 0.99863 -0.052336 0
    outer loop
      vertex 4.72398 -0.49651 1
      vertex 4.75 0 0
      vertex 4.75 0 1
    endloop
  endfacet
  facet normal 0.99863 -0.052336 0
    outer loop
      vertex 4.75 0 0
      vertex 4.72398 -0.49651 1
      vertex 4.72398 -0.49651 0
    endloop
  endfacet
  facet normal -0.45399 -0.891007 0
    outer loop
      vertex -2.375 -4.11362 0
      vertex -1.932 -4.33934 1
      vertex -2.375 -4.11362 1
    endloop
  endfacet
  facet normal -0.45399 -0.891007 -0
    outer loop
      vertex -1.932 -4.33934 1
      vertex -2.375 -4.11362 0
      vertex -1.932 -4.33934 0
    endloop
  endfacet
  facet normal -0.258818 -0.965926 0
    outer loop
      vertex -1.46783 -4.51752 0
      vertex -0.98758 -4.6462 1
      vertex -1.46783 -4.51752 1
    endloop
  endfacet
  facet normal -0.258818 -0.965926 -0
    outer loop
      vertex -0.98758 -4.6462 1
      vertex -1.46783 -4.51752 0
      vertex -0.98758 -4.6462 0
    endloop
  endfacet
  facet normal -0.052336 -0.99863 0
    outer loop
      vertex -0.49651 -4.72398 0
      vertex 0 -4.75 1
      vertex -0.49651 -4.72398 1
    endloop
  endfacet
  facet normal -0.052336 -0.99863 -0
    outer loop
      vertex 0 -4.75 1
      vertex -0.49651 -4.72398 0
      vertex 0 -4.75 0
    endloop
  endfacet
  facet normal -0.891006 -0.453991 0
    outer loop
      vertex -4.11362 -2.375 0
      vertex -4.33934 -1.932 1
      vertex -4.33934 -1.932 0
    endloop
  endfacet
  facet normal -0.891006 -0.453991 0
    outer loop
      vertex -4.33934 -1.932 1
      vertex -4.11362 -2.375 0
      vertex -4.11362 -2.375 1
    endloop
  endfacet
  facet normal 0.997452 0.0713403 0
    outer loop
      vertex 3.5 0 4
      vertex 3.46437 0.498101 1
      vertex 3.46437 0.498101 4
    endloop
  endfacet
  facet normal 0.997452 0.0713403 0
    outer loop
      vertex 3.46437 0.498101 1
      vertex 3.5 0 4
      vertex 3.5 0 1
    endloop
  endfacet
  facet normal -0.997452 0.0713403 0
    outer loop
      vertex -3.5 0 1
      vertex -3.46437 0.498101 4
      vertex -3.46437 0.498101 1
    endloop
  endfacet
  facet normal -0.997452 0.0713403 0
    outer loop
      vertex -3.46437 0.498101 4
      vertex -3.5 0 1
      vertex -3.5 0 4
    endloop
  endfacet
  facet normal 0.0713403 0.997452 -0
    outer loop
      vertex 0.498101 3.46437 1
      vertex 0 3.5 4
      vertex 0.498101 3.46437 4
    endloop
  endfacet
  facet normal 0.0713403 0.997452 0
    outer loop
      vertex 0 3.5 4
      vertex 0.498101 3.46437 1
      vertex 0 3.5 1
    endloop
  endfacet
  facet normal -0.0713403 -0.997452 0
    outer loop
      vertex -0.498101 -3.46437 1
      vertex 0 -3.5 4
      vertex -0.498101 -3.46437 4
    endloop
  endfacet
  facet normal -0.0713403 -0.997452 -0
    outer loop
      vertex 0 -3.5 4
      vertex -0.498101 -3.46437 1
      vertex 0 -3.5 1
    endloop
  endfacet
  facet normal -0.800542 -0.599276 0
    outer loop
      vertex -2.64512 -2.29201 1
      vertex -2.94439 -1.89224 4
      vertex -2.94439 -1.89224 1
    endloop
  endfacet
  facet normal -0.800542 -0.599276 0
    outer loop
      vertex -2.94439 -1.89224 4
      vertex -2.64512 -2.29201 1
      vertex -2.64512 -2.29201 4
    endloop
  endfacet
  facet normal 0.707107 0.707107 0
    outer loop
      vertex 2.64512 2.29201 4
      vertex 2.29201 2.64512 1
      vertex 2.29201 2.64512 4
    endloop
  endfacet
  facet normal 0.707107 0.707107 0
    outer loop
      vertex 2.29201 2.64512 1
      vertex 2.64512 2.29201 4
      vertex 2.64512 2.29201 1
    endloop
  endfacet
  facet normal -0.599276 0.800542 0
    outer loop
      vertex -1.89224 2.94439 1
      vertex -2.29201 2.64512 4
      vertex -1.89224 2.94439 4
    endloop
  endfacet
  facet normal -0.599276 0.800542 0
    outer loop
      vertex -2.29201 2.64512 4
      vertex -1.89224 2.94439 1
      vertex -2.29201 2.64512 1
    endloop
  endfacet
  facet normal -0.212565 0.977147 0
    outer loop
      vertex -0.498101 3.46437 1
      vertex -0.986063 3.35822 4
      vertex -0.498101 3.46437 4
    endloop
  endfacet
  facet normal -0.212565 0.977147 0
    outer loop
      vertex -0.986063 3.35822 4
      vertex -0.498101 3.46437 1
      vertex -0.986063 3.35822 1
    endloop
  endfacet
  facet normal 0.877679 0.479249 0
    outer loop
      vertex 3.18371 1.45395 4
      vertex 2.94439 1.89224 1
      vertex 2.94439 1.89224 4
    endloop
  endfacet
  facet normal 0.877679 0.479249 0
    outer loop
      vertex 2.94439 1.89224 1
      vertex 3.18371 1.45395 4
      vertex 3.18371 1.45395 1
    endloop
  endfacet
  facet normal 0.977147 0.212565 0
    outer loop
      vertex 3.46437 0.498101 4
      vertex 3.35822 0.986063 1
      vertex 3.35822 0.986063 4
    endloop
  endfacet
  facet normal 0.977147 0.212565 0
    outer loop
      vertex 3.35822 0.986063 1
      vertex 3.46437 0.498101 4
      vertex 3.46437 0.498101 1
    endloop
  endfacet
  facet normal 0.800542 0.599276 0
    outer loop
      vertex 2.94439 1.89224 4
      vertex 2.64512 2.29201 1
      vertex 2.64512 2.29201 4
    endloop
  endfacet
  facet normal 0.800542 0.599276 0
    outer loop
      vertex 2.64512 2.29201 1
      vertex 2.94439 1.89224 4
      vertex 2.94439 1.89224 1
    endloop
  endfacet
  facet normal 0.349465 0.93695 -0
    outer loop
      vertex 1.45395 3.18371 1
      vertex 0.986063 3.35822 4
      vertex 1.45395 3.18371 4
    endloop
  endfacet
  facet normal 0.349465 0.93695 0
    outer loop
      vertex 0.986063 3.35822 4
      vertex 1.45395 3.18371 1
      vertex 0.986063 3.35822 1
    endloop
  endfacet
  facet normal 0.212565 0.977147 -0
    outer loop
      vertex 0.986063 3.35822 1
      vertex 0.498101 3.46437 4
      vertex 0.986063 3.35822 4
    endloop
  endfacet
  facet normal 0.212565 0.977147 0
    outer loop
      vertex 0.498101 3.46437 4
      vertex 0.986063 3.35822 1
      vertex 0.498101 3.46437 1
    endloop
  endfacet
  facet normal 0.479249 0.877679 -0
    outer loop
      vertex 1.89224 2.94439 1
      vertex 1.45395 3.18371 4
      vertex 1.89224 2.94439 4
    endloop
  endfacet
  facet normal 0.479249 0.877679 0
    outer loop
      vertex 1.45395 3.18371 4
      vertex 1.89224 2.94439 1
      vertex 1.45395 3.18371 1
    endloop
  endfacet
  facet normal -0.877679 0.479249 0
    outer loop
      vertex -3.18371 1.45395 1
      vertex -2.94439 1.89224 4
      vertex -2.94439 1.89224 1
    endloop
  endfacet
  facet normal -0.877679 0.479249 0
    outer loop
      vertex -2.94439 1.89224 4
      vertex -3.18371 1.45395 1
      vertex -3.18371 1.45395 4
    endloop
  endfacet
  facet normal -0.707107 0.707107 0
    outer loop
      vertex -2.64512 2.29201 1
      vertex -2.29201 2.64512 4
      vertex -2.29201 2.64512 1
    endloop
  endfacet
  facet normal -0.707107 0.707107 0
    outer loop
      vertex -2.29201 2.64512 4
      vertex -2.64512 2.29201 1
      vertex -2.64512 2.29201 4
    endloop
  endfacet
  facet normal -0.93695 0.349465 0
    outer loop
      vertex -3.35822 0.986063 1
      vertex -3.18371 1.45395 4
      vertex -3.18371 1.45395 1
    endloop
  endfacet
  facet normal -0.93695 0.349465 0
    outer loop
      vertex -3.18371 1.45395 4
      vertex -3.35822 0.986063 1
      vertex -3.35822 0.986063 4
    endloop
  endfacet
  facet normal -0.349465 0.93695 0
    outer loop
      vertex -0.986063 3.35822 1
      vertex -1.45395 3.18371 4
      vertex -0.986063 3.35822 4
    endloop
  endfacet
  facet normal -0.349465 0.93695 0
    outer loop
      vertex -1.45395 3.18371 4
      vertex -0.986063 3.35822 1
      vertex -1.45395 3.18371 1
    endloop
  endfacet
  facet normal -0.0713403 0.997452 0
    outer loop
      vertex 0 3.5 1
      vertex -0.498101 3.46437 4
      vertex 0 3.5 4
    endloop
  endfacet
  facet normal -0.0713403 0.997452 0
    outer loop
      vertex -0.498101 3.46437 4
      vertex 0 3.5 1
      vertex -0.498101 3.46437 1
    endloop
  endfacet
  facet normal 0.977147 -0.212565 0
    outer loop
      vertex 3.35822 -0.986063 4
      vertex 3.46437 -0.498101 1
      vertex 3.46437 -0.498101 4
    endloop
  endfacet
  facet normal 0.977147 -0.212565 0
    outer loop
      vertex 3.46437 -0.498101 1
      vertex 3.35822 -0.986063 4
      vertex 3.35822 -0.986063 1
    endloop
  endfacet
  facet normal -0.707107 -0.707107 0
    outer loop
      vertex -2.29201 -2.64512 1
      vertex -2.64512 -2.29201 4
      vertex -2.64512 -2.29201 1
    endloop
  endfacet
  facet normal -0.707107 -0.707107 0
    outer loop
      vertex -2.64512 -2.29201 4
      vertex -2.29201 -2.64512 1
      vertex -2.29201 -2.64512 4
    endloop
  endfacet
  facet normal -0.349465 -0.93695 0
    outer loop
      vertex -1.45395 -3.18371 1
      vertex -0.986063 -3.35822 4
      vertex -1.45395 -3.18371 4
    endloop
  endfacet
  facet normal -0.349465 -0.93695 -0
    outer loop
      vertex -0.986063 -3.35822 4
      vertex -1.45395 -3.18371 1
      vertex -0.986063 -3.35822 1
    endloop
  endfacet
  facet normal -0.93695 -0.349465 0
    outer loop
      vertex -3.18371 -1.45395 1
      vertex -3.35822 -0.986063 4
      vertex -3.35822 -0.986063 1
    endloop
  endfacet
  facet normal -0.93695 -0.349465 0
    outer loop
      vertex -3.35822 -0.986063 4
      vertex -3.18371 -1.45395 1
      vertex -3.18371 -1.45395 4
    endloop
  endfacet
  facet normal -0.997452 -0.0713403 0
    outer loop
      vertex -3.46437 -0.498101 1
      vertex -3.5 0 4
      vertex -3.5 0 1
    endloop
  endfacet
  facet normal -0.997452 -0.0713403 0
    outer loop
      vertex -3.5 0 4
      vertex -3.46437 -0.498101 1
      vertex -3.46437 -0.498101 4
    endloop
  endfacet
  facet normal 0.93695 0.349465 0
    outer loop
      vertex 3.35822 0.986063 4
      vertex 3.18371 1.45395 1
      vertex 3.18371 1.45395 4
    endloop
  endfacet
  facet normal 0.93695 0.349465 0
    outer loop
      vertex 3.18371 1.45395 1
      vertex 3.35822 0.986063 4
      vertex 3.35822 0.986063 1
    endloop
  endfacet
  facet normal 0.599276 0.800542 -0
    outer loop
      vertex 2.29201 2.64512 1
      vertex 1.89224 2.94439 4
      vertex 2.29201 2.64512 4
    endloop
  endfacet
  facet normal 0.599276 0.800542 0
    outer loop
      vertex 1.89224 2.94439 4
      vertex 2.29201 2.64512 1
      vertex 1.89224 2.94439 1
    endloop
  endfacet
  facet normal -0.800542 0.599276 0
    outer loop
      vertex -2.94439 1.89224 1
      vertex -2.64512 2.29201 4
      vertex -2.64512 2.29201 1
    endloop
  endfacet
  facet normal -0.800542 0.599276 0
    outer loop
      vertex -2.64512 2.29201 4
      vertex -2.94439 1.89224 1
      vertex -2.94439 1.89224 4
    endloop
  endfacet
  facet normal -0.977147 0.212565 0
    outer loop
      vertex -3.46437 0.498101 1
      vertex -3.35822 0.986063 4
      vertex -3.35822 0.986063 1
    endloop
  endfacet
  facet normal -0.977147 0.212565 0
    outer loop
      vertex -3.35822 0.986063 4
      vertex -3.46437 0.498101 1
      vertex -3.46437 0.498101 4
    endloop
  endfacet
  facet normal 0 0 1
    outer loop
      vertex 3.46437 0.498101 4
      vertex 3.46437 -0.498101 4
      vertex 3.5 0 4
    endloop
  endfacet
  facet normal 0 0 1
    outer loop
      vertex 3.35822 0.986063 4
      vertex 3.46437 -0.498101 4
      vertex 3.46437 0.498101 4
    endloop
  endfacet
  facet normal 0 0 1
    outer loop
      vertex 3.35822 0.986063 4
      vertex 3.35822 -0.986063 4
      vertex 3.46437 -0.498101 4
    endloop
  endfacet
  facet normal 0 0 1
    outer loop
      vertex 3.18371 1.45395 4
      vertex 3.35822 -0.986063 4
      vertex 3.35822 0.986063 4
    endloop
  endfacet
  facet normal 0 0 1
    outer loop
      vertex 3.18371 1.45395 4
      vertex 3.18371 -1.45395 4
      vertex 3.35822 -0.986063 4
    endloop
  endfacet
  facet normal 0 0 1
    outer loop
      vertex 2.94439 1.89224 4
      vertex 3.18371 -1.45395 4
      vertex 3.18371 1.45395 4
    endloop
  endfacet
  facet normal 0 0 1
    outer loop
      vertex 2.94439 1.89224 4
      vertex 2.94439 -1.89224 4
      vertex 3.18371 -1.45395 4
    endloop
  endfacet
  facet normal 0 0 1
    outer loop
      vertex 2.64512 2.29201 4
      vertex 2.94439 -1.89224 4
      vertex 2.94439 1.89224 4
    endloop
  endfacet
  facet normal 0 0 1
    outer loop
      vertex 2.64512 2.29201 4
      vertex 2.64512 -2.29201 4
      vertex 2.94439 -1.89224 4
    endloop
  endfacet
  facet normal 0 0 1
    outer loop
      vertex 2.29201 2.64512 4
      vertex 2.64512 -2.29201 4
      vertex 2.64512 2.29201 4
    endloop
  endfacet
  facet normal 0 0 1
    outer loop
      vertex 2.29201 2.64512 4
      vertex 2.29201 -2.64512 4
      vertex 2.64512 -2.29201 4
    endloop
  endfacet
  facet normal 0 0 1
    outer loop
      vertex 1.89224 2.94439 4
      vertex 2.29201 -2.64512 4
      vertex 2.29201 2.64512 4
    endloop
  endfacet
  facet normal 0 0 1
    outer loop
      vertex 1.89224 2.94439 4
      vertex 1.89224 -2.94439 4
      vertex 2.29201 -2.64512 4
    endloop
  endfacet
  facet normal 0 0 1
    outer loop
      vertex 1.45395 3.18371 4
      vertex 1.89224 -2.94439 4
      vertex 1.89224 2.94439 4
    endloop
  endfacet
  facet normal 0 0 1
    outer loop
      vertex 1.45395 3.18371 4
      vertex 1.45395 -3.18371 4
      vertex 1.89224 -2.94439 4
    endloop
  endfacet
  facet normal 0 0 1
    outer loop
      vertex 0.986063 3.35822 4
      vertex 1.45395 -3.18371 4
      vertex 1.45395 3.18371 4
    endloop
  endfacet
  facet normal 0 0 1
    outer loop
      vertex 0.986063 3.35822 4
      vertex 0.986063 -3.35822 4
      vertex 1.45395 -3.18371 4
    endloop
  endfacet
  facet normal 0 0 1
    outer loop
      vertex 0.498101 3.46437 4
      vertex 0.986063 -3.35822 4
      vertex 0.986063 3.35822 4
    endloop
  endfacet
  facet normal 0 0 1
    outer loop
      vertex 0.498101 3.46437 4
      vertex 0.498101 -3.46437 4
      vertex 0.986063 -3.35822 4
    endloop
  endfacet
  facet normal 0 0 1
    outer loop
      vertex 0 3.5 4
      vertex 0.498101 -3.46437 4
      vertex 0.498101 3.46437 4
    endloop
  endfacet
  facet normal 0 0 1
    outer loop
      vertex 0 3.5 4
      vertex 0 -3.5 4
      vertex 0.498101 -3.46437 4
    endloop
  endfacet
  facet normal -0 0 1
    outer loop
      vertex -0.498101 3.46437 4
      vertex 0 -3.5 4
      vertex 0 3.5 4
    endloop
  endfacet
  facet normal 0 0 1
    outer loop
      vertex -0.498101 3.46437 4
      vertex -0.498101 -3.46437 4
      vertex 0 -3.5 4
    endloop
  endfacet
  facet normal -0 0 1
    outer loop
      vertex -0.986063 3.35822 4
      vertex -0.498101 -3.46437 4
      vertex -0.498101 3.46437 4
    endloop
  endfacet
  facet normal 0 0 1
    outer loop
      vertex -0.986063 3.35822 4
      vertex -0.986063 -3.35822 4
      vertex -0.498101 -3.46437 4
    endloop
  endfacet
  facet normal -0 0 1
    outer loop
      vertex -1.45395 3.18371 4
      vertex -0.986063 -3.35822 4
      vertex -0.986063 3.35822 4
    endloop
  endfacet
  facet normal 0 0 1
    outer loop
      vertex -1.45395 3.18371 4
      vertex -1.45395 -3.18371 4
      vertex -0.986063 -3.35822 4
    endloop
  endfacet
  facet normal -0 0 1
    outer loop
      vertex -1.89224 2.94439 4
      vertex -1.45395 -3.18371 4
      vertex -1.45395 3.18371 4
    endloop
  endfacet
  facet normal 0 0 1
    outer loop
      vertex -1.89224 2.94439 4
      vertex -1.89224 -2.94439 4
      vertex -1.45395 -3.18371 4
    endloop
  endfacet
  facet normal -0 0 1
    outer loop
      vertex -2.29201 2.64512 4
      vertex -1.89224 -2.94439 4
      vertex -1.89224 2.94439 4
    endloop
  endfacet
  facet normal 0 0 1
    outer loop
      vertex -2.29201 2.64512 4
      vertex -2.29201 -2.64512 4
      vertex -1.89224 -2.94439 4
    endloop
  endfacet
  facet normal -0 0 1
    outer loop
      vertex -2.64512 2.29201 4
      vertex -2.29201 -2.64512 4
      vertex -2.29201 2.64512 4
    endloop
  endfacet
  facet normal 0 0 1
    outer loop
      vertex -2.64512 2.29201 4
      vertex -2.64512 -2.29201 4
      vertex -2.29201 -2.64512 4
    endloop
  endfacet
  facet normal -0 0 1
    outer loop
      vertex -2.94439 1.89224 4
      vertex -2.64512 -2.29201 4
      vertex -2.64512 2.29201 4
    endloop
  endfacet
  facet normal 0 0 1
    outer loop
      vertex -2.94439 1.89224 4
      vertex -2.94439 -1.89224 4
      vertex -2.64512 -2.29201 4
    endloop
  endfacet
  facet normal -0 0 1
    outer loop
      vertex -3.18371 1.45395 4
      vertex -2.94439 -1.89224 4
      vertex -2.94439 1.89224 4
    endloop
  endfacet
  facet normal 0 0 1
    outer loop
      vertex -3.18371 1.45395 4
      vertex -3.18371 -1.45395 4
      vertex -2.94439 -1.89224 4
    endloop
  endfacet
  facet normal -0 0 1
    outer loop
      vertex -3.35822 0.986063 4
      vertex -3.18371 -1.45395 4
      vertex -3.18371 1.45395 4
    endloop
  endfacet
  facet normal 0 0 1
    outer loop
      vertex -3.35822 0.986063 4
      vertex -3.35822 -0.986063 4
      vertex -3.18371 -1.45395 4
    endloop
  endfacet
  facet normal -0 0 1
    outer loop
      vertex -3.46437 0.498101 4
      vertex -3.35822 -0.986063 4
      vertex -3.35822 0.986063 4
    endloop
  endfacet
  facet normal 0 0 1
    outer loop
      vertex -3.46437 0.498101 4
      vertex -3.46437 -0.498101 4
      vertex -3.35822 -0.986063 4
    endloop
  endfacet
  facet normal 0 -0 1
    outer loop
      vertex -3.46437 -0.498101 4
      vertex -3.46437 0.498101 4
      vertex -3.5 0 4
    endloop
  endfacet
  facet normal -0.479249 0.877679 0
    outer loop
      vertex -1.45395 3.18371 1
      vertex -1.89224 2.94439 4
      vertex -1.45395 3.18371 4
    endloop
  endfacet
  facet normal -0.479249 0.877679 0
    outer loop
      vertex -1.89224 2.94439 4
      vertex -1.45395 3.18371 1
      vertex -1.89224 2.94439 1
    endloop
  endfacet
  facet normal 0.0713403 -0.997452 0
    outer loop
      vertex 0 -3.5 1
      vertex 0.498101 -3.46437 4
      vertex 0 -3.5 4
    endloop
  endfacet
  facet normal 0.0713403 -0.997452 0
    outer loop
      vertex 0.498101 -3.46437 4
      vertex 0 -3.5 1
      vertex 0.498101 -3.46437 1
    endloop
  endfacet
  facet normal 0.349465 -0.93695 0
    outer loop
      vertex 0.986063 -3.35822 1
      vertex 1.45395 -3.18371 4
      vertex 0.986063 -3.35822 4
    endloop
  endfacet
  facet normal 0.349465 -0.93695 0
    outer loop
      vertex 1.45395 -3.18371 4
      vertex 0.986063 -3.35822 1
      vertex 1.45395 -3.18371 1
    endloop
  endfacet
  facet normal 0.707107 -0.707107 0
    outer loop
      vertex 2.29201 -2.64512 4
      vertex 2.64512 -2.29201 1
      vertex 2.64512 -2.29201 4
    endloop
  endfacet
  facet normal 0.707107 -0.707107 0
    outer loop
      vertex 2.64512 -2.29201 1
      vertex 2.29201 -2.64512 4
      vertex 2.29201 -2.64512 1
    endloop
  endfacet
  facet normal 0.479249 -0.877679 0
    outer loop
      vertex 1.45395 -3.18371 1
      vertex 1.89224 -2.94439 4
      vertex 1.45395 -3.18371 4
    endloop
  endfacet
  facet normal 0.479249 -0.877679 0
    outer loop
      vertex 1.89224 -2.94439 4
      vertex 1.45395 -3.18371 1
      vertex 1.89224 -2.94439 1
    endloop
  endfacet
  facet normal 0.800542 -0.599276 0
    outer loop
      vertex 2.64512 -2.29201 4
      vertex 2.94439 -1.89224 1
      vertex 2.94439 -1.89224 4
    endloop
  endfacet
  facet normal 0.800542 -0.599276 0
    outer loop
      vertex 2.94439 -1.89224 1
      vertex 2.64512 -2.29201 4
      vertex 2.64512 -2.29201 1
    endloop
  endfacet
  facet normal 0.93695 -0.349465 0
    outer loop
      vertex 3.18371 -1.45395 4
      vertex 3.35822 -0.986063 1
      vertex 3.35822 -0.986063 4
    endloop
  endfacet
  facet normal 0.93695 -0.349465 0
    outer loop
      vertex 3.35822 -0.986063 1
      vertex 3.18371 -1.45395 4
      vertex 3.18371 -1.45395 1
    endloop
  endfacet
  facet normal -0.599276 -0.800542 0
    outer loop
      vertex -2.29201 -2.64512 1
      vertex -1.89224 -2.94439 4
      vertex -2.29201 -2.64512 4
    endloop
  endfacet
  facet normal -0.599276 -0.800542 -0
    outer loop
      vertex -1.89224 -2.94439 4
      vertex -2.29201 -2.64512 1
      vertex -1.89224 -2.94439 1
    endloop
  endfacet
  facet normal -0.212565 -0.977147 0
    outer loop
      vertex -0.986063 -3.35822 1
      vertex -0.498101 -3.46437 4
      vertex -0.986063 -3.35822 4
    endloop
  endfacet
  facet normal -0.212565 -0.977147 -0
    outer loop
      vertex -0.498101 -3.46437 4
      vertex -0.986063 -3.35822 1
      vertex -0.498101 -3.46437 1
    endloop
  endfacet
  facet normal -0.877679 -0.479249 0
    outer loop
      vertex -2.94439 -1.89224 1
      vertex -3.18371 -1.45395 4
      vertex -3.18371 -1.45395 1
    endloop
  endfacet
  facet normal -0.877679 -0.479249 0
    outer loop
      vertex -3.18371 -1.45395 4
      vertex -2.94439 -1.89224 1
      vertex -2.94439 -1.89224 4
    endloop
  endfacet
  facet normal -0.977147 -0.212565 0
    outer loop
      vertex -3.35822 -0.986063 1
      vertex -3.46437 -0.498101 4
      vertex -3.46437 -0.498101 1
    endloop
  endfacet
  facet normal -0.977147 -0.212565 0
    outer loop
      vertex -3.46437 -0.498101 4
      vertex -3.35822 -0.986063 1
      vertex -3.35822 -0.986063 4
    endloop
  endfacet
  facet normal 0.997452 -0.0713403 0
    outer loop
      vertex 3.46437 -0.498101 4
      vertex 3.5 0 1
      vertex 3.5 0 4
    endloop
  endfacet
  facet normal 0.997452 -0.0713403 0
    outer loop
      vertex 3.5 0 1
      vertex 3.46437 -0.498101 4
      vertex 3.46437 -0.498101 1
    endloop
  endfacet
  facet normal 0.212565 -0.977147 0
    outer loop
      vertex 0.498101 -3.46437 1
      vertex 0.986063 -3.35822 4
      vertex 0.498101 -3.46437 4
    endloop
  endfacet
  facet normal 0.212565 -0.977147 0
    outer loop
      vertex 0.986063 -3.35822 4
      vertex 0.498101 -3.46437 1
      vertex 0.986063 -3.35822 1
    endloop
  endfacet
  facet normal 0.599276 -0.800542 0
    outer loop
      vertex 1.89224 -2.94439 1
      vertex 2.29201 -2.64512 4
      vertex 1.89224 -2.94439 4
    endloop
  endfacet
  facet normal 0.599276 -0.800542 0
    outer loop
      vertex 2.29201 -2.64512 4
      vertex 1.89224 -2.94439 1
      vertex 2.29201 -2.64512 1
    endloop
  endfacet
  facet normal 0.877679 -0.479249 0
    outer loop
      vertex 2.94439 -1.89224 4
      vertex 3.18371 -1.45395 1
      vertex 3.18371 -1.45395 4
    endloop
  endfacet
  facet normal 0.877679 -0.479249 0
    outer loop
      vertex 3.18371 -1.45395 1
      vertex 2.94439 -1.89224 4
      vertex 2.94439 -1.89224 1
    endloop
  endfacet
  facet normal -0.479249 -0.877679 0
    outer loop
      vertex -1.89224 -2.94439 1
      vertex -1.45395 -3.18371 4
      vertex -1.89224 -2.94439 4
    endloop
  endfacet
  facet normal -0.479249 -0.877679 -0
    outer loop
      vertex -1.45395 -3.18371 4
      vertex -1.89224 -2.94439 1
      vertex -1.45395 -3.18371 1
    endloop
  endfacet
endsolid OpenSCAD_Model
